/* XPM */
static char *a12b5cf679e24dd9fe0560f9de932e614JCmDWGIfc2J1Zje[] = {
/* columns rows colors chars-per-pixel */
"32 32 241 2 ",
"   c #1E0E04",
".  c #290606",
"X  c #3A060A",
"o  c #2E1607",
"O  c #37170A",
"+  c #390A15",
"@  c #311A11",
"#  c #2A2216",
"$  c #3D210D",
"%  c #3F0E21",
"&  c #2D1525",
"*  c #312A2C",
"=  c #5C0907",
"-  c #46180D",
";  c #561907",
":  c #461E1A",
">  c #491814",
",  c #4B0C15",
"<  c #681A0C",
"1  c #781515",
"2  c #731913",
"3  c #572915",
"4  c #482C16",
"5  c #6C2515",
"6  c #74231D",
"7  c #752B1A",
"8  c #663519",
"9  c #763519",
"0  c #6F270F",
"q  c #591B23",
"w  c #6D1E25",
"e  c #482923",
"r  c #542A26",
"t  c #5D3B38",
"y  c #682823",
"u  c #6B3828",
"i  c #6C3C35",
"p  c #75322C",
"a  c #355820",
"s  c #7E4210",
"d  c #5B791D",
"f  c #516412",
"g  c #524137",
"h  c #774523",
"j  c #7E4839",
"k  c #6F4C38",
"l  c #586623",
"z  c #4B752D",
"x  c #777B2A",
"c  c #713F4B",
"v  c #5A4A4C",
"b  c #6F5A5A",
"n  c #7A534F",
"m  c #7C6557",
"M  c #871B0F",
"N  c #822C04",
"B  c #872613",
"V  c #932C19",
"C  c #893616",
"Z  c #99381D",
"A  c #893B0B",
"S  c #852D2D",
"D  c #863627",
"F  c #963626",
"G  c #853637",
"H  c #972D2F",
"J  c #A53B2B",
"K  c #8A4417",
"L  c #924C1B",
"P  c #A4451C",
"I  c #B4461F",
"U  c #BB6616",
"Y  c #874729",
"T  c #8C5127",
"R  c #9C5226",
"E  c #945538",
"W  c #8E5030",
"Q  c #A64926",
"!  c #B44B25",
"~  c #A45429",
"^  c #A64832",
"/  c #AB5738",
"(  c #B5593A",
")  c #BD5824",
"_  c #9D692F",
"`  c #A7663C",
"'  c #B76638",
"]  c #B27024",
"[  c #C45A28",
"{  c #C04C25",
"}  c #C36B2A",
"|  c #C07D2F",
" . c #C46A38",
".. c #C47038",
"X. c #DC762E",
"o. c #89564A",
"O. c #975A44",
"+. c #815D5F",
"@. c #955B59",
"#. c #9E4D49",
"$. c #A75A49",
"%. c #B35543",
"&. c #8C644B",
"*. c #9B6747",
"=. c #98704D",
"-. c #9B6953",
";. c #947757",
":. c #AB6747",
">. c #B36545",
",. c #BA6A49",
"<. c #B3744C",
"1. c #BB764A",
"2. c #AD6854",
"3. c #B76B58",
"4. c #AE7853",
"5. c #BA7957",
"6. c #A77747",
"7. c #947A68",
"8. c #94656A",
"9. c #BC776B",
"0. c #AD796B",
"q. c #C86A4B",
"w. c #C7774B",
"e. c #C87056",
"r. c #C87565",
"t. c #D17E70",
"y. c #D07A6D",
"u. c #5B8416",
"i. c #5F8A30",
"p. c #5D8A23",
"a. c #67882B",
"s. c #779133",
"d. c #658D2A",
"f. c #718142",
"g. c #7EA759",
"h. c #858E33",
"j. c #85A93B",
"k. c #B4835D",
"l. c #B08E4D",
"z. c #98AB57",
"x. c #A0B34A",
"c. c #B1856A",
"v. c #B39171",
"b. c #96AD70",
"n. c #A3BD73",
"m. c #D3895D",
"M. c #D29152",
"N. c #C28867",
"B. c #C68E78",
"V. c #DC8176",
"C. c #CD907E",
"Z. c #D0996F",
"A. c #E39E76",
"S. c #E1936F",
"D. c #F3A575",
"F. c #A3D746",
"G. c #A9C66C",
"H. c #969192",
"J. c #B78883",
"K. c #AA918B",
"L. c #B0928E",
"P. c #9BB586",
"I. c #B1A893",
"U. c #BD99B9",
"Y. c #B5B2AD",
"T. c #C89A94",
"R. c #C99A80",
"E. c #CEA88A",
"W. c #CAA491",
"Q. c #D6A997",
"!. c #CAB295",
"~. c #DBA889",
"^. c #C9A6A9",
"/. c #CFBEA4",
"(. c #D7B4A6",
"). c #C4BBB5",
"_. c #D4B4B3",
"`. c #F1B8A8",
"'. c #E3BBB0",
"]. c #C6D09C",
"[. c #E4C29F",
"{. c #D9CAB4",
"}. c #E4C4AA",
"|. c #E9C6B7",
" X c #F0D5BA",
".X c #F0D0BD",
"XX c #D3E3BC",
"oX c #DCDCD6",
"OX c #DDDEDC",
"+X c #DCD4D3",
"@X c #D7CAC5",
"#X c #E5CBC2",
"$X c #E7D9CC",
"%X c #F6DBC8",
"&X c #E7DDDB",
"*X c #F8DBD6",
"=X c #FAC8C9",
"-X c #DDE2DB",
";X c #D7EBD5",
":X c #DFE4CD",
">X c #E3E4DC",
",X c #E9E8DB",
"<X c #F4E4DB",
"1X c #F4E3D6",
"2X c #EFE6CD",
"3X c #DFDCE5",
"4X c #E2DDE2",
"5X c #EBDDE8",
"6X c #F4DDE8",
"7X c #EADFF0",
"8X c #DDE5E3",
"9X c #DDEBE3",
"0X c #DCE7EB",
"qX c #DEE6F4",
"wX c #E4E3E4",
"eX c #ECE4E4",
"rX c #E4E9E3",
"tX c #EBE8E3",
"yX c #E5E5EB",
"uX c #EBE4EA",
"iX c #E4EAEA",
"pX c #EBEBEC",
"aX c #F5E8EA",
"sX c #F4F1EE",
"dX c #FFFAEB",
"fX c #F5F8EB",
"gX c #ECEBF3",
"hX c #E7E7F5",
"jX c #F7EFF3",
"kX c #ECF4F5",
"lX c #ECF9FD",
"zX c #F4F3F4",
"xX c #F5FDF5",
"cX c #FCFDF4",
"vX c #F4F3FA",
"bX c #FCF5FC",
"nX c #F5FCFD",
"mX c #FEFEFE",
"MX c #FDFCFD",
"NX c #FFF3F5",
"BX c #EAF6E8",
/* pixels */
"MXyXyXnXvXwXMXMXuXuXMXnXuXxXMXrX0XmXcX9XmXcX6X9XmXMXiXzXmXyX-XnX",
"mXwXwXmXzXwXmXmX>X9XcXnXwXmXmXyXuXmXMXyXlXnXhXhXmXmXrXzXMXuXwXmX",
"8XmXmX>XsXmXeXwXmXnXwXpXxX>X,XxXmX-X5XMXiXtXcXbX>XeXxXxXrXxXMXaX",
"iXxXMXOXsXmXOXpXmXMXwXgXMX6XyXMXcXtXyXMXaXeXfXnXwXeXMXsXrXcXmXwX",
"mXwXpXmXpXpXmXMXeX;XnXaX).Y.I.b / r.!.9XxXbXeXuXmXvXgXzXzX-XrXmX",
"wXmXvXyXkXnXpXeXwX$XL.K.W.q e.o.5 S 9 MXuXhXmXxX9X8XMXvXeXMXMXuX",
"pXmXmXyXpXMX&X#X(.J.K.e w # O +.o.*XC aX}.'.Q.~.1XtXkXkX&XMXMXuX",
"cXwXuXMXzX,X_.T.`.m ^ 7.5 A.6 T / dXP =X>.P V B -.dXrXkXmXeXwXmX",
"mXeX8XmXwX,XH.^.Z.= C Q R 7 u zX`.t.o.k   x.0 0 <.bX;XkXcX3XeXnX",
"yXcXmX1X%X|.A.: @ F ' Y 3 Z.<X^.k.j < $ +.D x l.*.a.lXjX&XMXMXuX",
"8XmXxX*X}.K.b t i ( 0 e N.D.7 %.. 6 ( 5._.Q T h p.d u.d.p.nXbXwX",
"cX7X%X&XU.9.8., r.y @ [  XH.* 7 n    .1.R L u O b.z g.vXcX>XhXcX",
"jXfX@.|.8.X G ' K @ ! jX@.: U.C E C P ( W $ m # f v.].b.vXnXfXzX",
"yX#XR.%X9.; ..T - 8 aX.XI - 7.m.V.C 9 W r : _ E.2X}.Q.W.<XmXcXwX",
"MX(.!.T.M ^ q.8 . 6.NXL.P % < >.9 h m q.zX2X#Xc.0.4.1 G V q.rXMX",
"mXE.H 6 F l.~ t $.fX1X5.< N ..9 n MX{.$X:X{ = F S 1 X ; 1 ~ B.cX",
"yXW.1.9.B.w.9 m S.dX{.) V ! 9 4  XzX(.n - > u , + 6 - F C c.,.I.",
"rXvXJ.^ W L i 0X! v.( } D D 3 Q.bX/.9 r ; X : b @X2 |.R Q |.4.(.",
"mXiXwXi ;.&.MXcX[.( E.5.<X7 8 BX^.O u v t g / E ` O.*.2.2.<.r.v.",
"MXhXtXcXbXrXvXNX( ,.L / Y 8 dXNXE.5 . . + K V.>.5.$.W 3.2.4.>.' ",
"yXnXcXuXpXmX+X9X[ C.3 #.: X.MX$XD q r X ! ..&.>.:.$.E j O.-.).uX",
"mXpXoXMXxXuXMXz oXO.h 8 & }.nXC  .p @ - ` e.3.=.Y.@XK A s Z.eXmX",
"cX5XrXb.pXeXcXG.iXM.F.l ,.xX X^./ + o E <.k.0 2XcXcXqXkXMX>XeXmX",
"wXnXMXi.XXz +Xn.z.x h.l ..%X'.=.C = w 5.0.} vXmXeXwXmXzXwXMXnXwX",
"wXMXMX9XlXd.P.a.j.a l.v m.Q ! N 6 Q.3.Y hX6XcXmXyX4XmXzXwXmXmXwX",
"mX>XOXmXa.j.s.cXrX8XnXnX` %.J * U L w.0.vXxXsX0XmXmXwXpXmX4XwXmX",
"cXgXz.f.BXf xXnX,Xd bXY.2.O.B E Q y.>.eXnXnXwXiXMXMXwXzXmXwXuXmX",
"rXmXcXwXs.cXyX,XmXMX9XyXMX:.:.9.:.r.-.MXaXeXbXmXpXyXMXzXuXMXMXwX",
"cX-XtXmXgXoXmXMXwXqXxXmXeX] o.:.N.:.nXqXvXMX&XuXMXMXpXzXMXuXpXvX",
"MXpXyXcXvXrXMXmXwXuXmXxX4XcX| V B M.xX>XcXMX8X0XmXMXwXzXmXwXwXmX",
"yXMXcXwXvXcXwX>XxXMXeXpXmX>XaXMXnX,XiXmXuX6XcXmXwXuXmXpXwXmXMXwX",
"yXcXmXuXzXmXyXyXMXMXuX,XMXwX0XmXcX&XeXnX9XiXcXmXwXwXmXzXyXmXMXwX"
};
