/* XPM */
static char *fa013715dfe640648e552e70340ea3adsFhLgBbXuHoes7IL[] = {
/* columns rows colors chars-per-pixel */
"32 32 181 2 ",
"   c #000000",
".  c #0A0202",
"X  c #040B04",
"o  c #0B0B04",
"O  c #03020A",
"+  c #09050C",
"@  c #020808",
"#  c #0B0B0B",
"$  c #0D1005",
"%  c #15130A",
"&  c #1B140E",
"*  c #1B1B0F",
"=  c #010213",
"-  c #130711",
";  c #110F10",
":  c #0A151C",
">  c #151414",
",  c #181715",
"<  c #1E1C14",
"1  c #1A171E",
"2  c #1D1D19",
"3  c #15161A",
"4  c #220700",
"5  c #2A1711",
"6  c #211811",
"7  c #22211D",
"8  c #23291F",
"9  c #2D2E1E",
"0  c #322A1F",
"q  c #3A311D",
"w  c #343314",
"e  c #1E1F21",
"r  c #121D23",
"t  c #251D23",
"y  c #281F22",
"u  c #261E2D",
"i  c #232523",
"p  c #282623",
"a  c #28222C",
"s  c #2E2D28",
"d  c #292829",
"f  c #3A2824",
"g  c #322E2D",
"h  c #3A3726",
"j  c #34342A",
"k  c #393228",
"l  c #3C3A2C",
"z  c #362C33",
"x  c #382E39",
"c  c #343131",
"v  c #3A3635",
"b  c #3B3934",
"n  c #32333C",
"m  c #3E3E3C",
"M  c #463A31",
"N  c #493F33",
"B  c #483F3A",
"V  c #483938",
"C  c #3D4039",
"Z  c #5B4E2E",
"A  c #43423B",
"S  c #4B453D",
"D  c #4C4734",
"F  c #574E31",
"G  c #5A4935",
"H  c #2E3D42",
"J  c #3D3E43",
"K  c #413C43",
"L  c #354346",
"P  c #474641",
"I  c #464847",
"U  c #484840",
"Y  c #4C4B4A",
"T  c #524644",
"R  c #554A45",
"E  c #58494D",
"W  c #4A5046",
"Q  c #45514F",
"!  c #55534A",
"~  c #525D4F",
"^  c #4F5150",
"/  c #47595B",
"(  c #465155",
")  c #535652",
"_  c #5B5550",
"`  c #5A5A55",
"'  c #5C5E5C",
"]  c #625644",
"[  c #695A44",
"{  c #665A48",
"}  c #725F41",
"|  c #665B57",
" . c #685F5A",
".. c #66555D",
"X. c #5E625F",
"o. c #62635A",
"O. c #69665D",
"+. c #766B53",
"@. c #74675F",
"#. c #7A6E5E",
"$. c #7D705D",
"%. c #7D7F5A",
"&. c #5E5D63",
"*. c #606261",
"=. c #6D6C6A",
"-. c #706768",
";. c #6E7261",
":. c #7E7763",
">. c #77746B",
",. c #7B7B7B",
"<. c #827552",
"1. c #907D5F",
"2. c #836E69",
"3. c #847D65",
"4. c #80766A",
"5. c #817366",
"6. c #917F6B",
"7. c #927F79",
"8. c #947C70",
"9. c #7E807F",
"0. c #878259",
"q. c #878063",
"w. c #9B8262",
"e. c #908268",
"r. c #8D9365",
"t. c #989376",
"y. c #9C947B",
"u. c #AA947D",
"i. c #AAA27B",
"p. c #888783",
"a. c #919187",
"s. c #90958F",
"d. c #989489",
"f. c #8E8892",
"g. c #9F9F93",
"h. c #9C939B",
"j. c #939B9D",
"k. c #8A9599",
"l. c #A19887",
"z. c #A29D89",
"x. c #AC988D",
"c. c #B49C84",
"v. c #AC8E96",
"b. c #ABA282",
"n. c #B7A983",
"m. c #B1A88B",
"M. c #BAAB8A",
"N. c #AFAB90",
"B. c #A9A69B",
"V. c #BDA792",
"C. c #BCAB99",
"Z. c #BFBD96",
"A. c #BEB29C",
"S. c #BEBA9D",
"D. c #AD96A6",
"F. c #B0A7AA",
"G. c #BBA6A1",
"H. c #C0B28F",
"J. c #C8B789",
"K. c #C0BA96",
"L. c #C3B19C",
"P. c #C7BBAF",
"I. c #CBB6A3",
"U. c #D5BCB7",
"Y. c #D7D78F",
"T. c #C7C594",
"R. c #CFC892",
"E. c #CFC79C",
"W. c #D0C196",
"Q. c #D9CA9F",
"!. c #F6DE94",
"~. c #E4D999",
"^. c #C8C5A5",
"/. c #DEC6AA",
"(. c #D1D5A2",
"). c #DBD0BA",
"_. c #E3D7A7",
"`. c #E8C7A8",
"'. c #EBE7AA",
"]. c #F8E4A5",
"[. c #EEEBB8",
/* pixels */
"                  O @   = . L./.c.I.C.. O O @ O                 ",
"                      . . S.T.E.Q._.E.z.  +                     ",
"                O O o Z b.> p.S.I.^.B.d.b.+..                   ",
"                .   n V 8.z u G.U.P.b k [ G O.m                 ",
"                . @ Y [ J.b.] `.].n.3.{ x.6.y.O.                ",
"                . O e q M.).H.!.~.e.5.C.L.<.0.C                 ",
"                  O . M A.K.S.T K E :.A.y.q .                   ",
"                  O . ] @.& B.: r 2 -.R 3.h   O                 ",
"                    . M { :.a.3 o a n r.V.}   @                 ",
"                      S :.$.5 E ..f z l.w.w.t                   ",
"                O O @ ! D #.2.v.D.7.h.z.u.n.Y O                 ",
"                . . v ! >.l _ t 3 Y s.;.i.t.@ O                 ",
"                . & B T S ' Q / ( X.~ ) Y.B.O                   ",
"                X 8 A R | A j.H L c &.^.W.+.O .                 ",
"                # i b S  .p ' i k.c x '.4 <.+                   ",
"                - y V ! S =.b 2 : p 0 m.1.q.  O                 ",
"                  > p P o.A ` ` ,.g.(.l z.j                     ",
"                  # ; P ` ! ) =.,.a.%.% . b   O                 ",
"                  # @ i A U b m J o.9 o >.1 o O                 ",
"                  # # o 2 6 2 e d j , 2 b O   @                 ",
"                      7 p 7 # + @ $ + % m O                     ",
"                      v b 7         + * 2   #                   ",
"                @     , b s       O O * g   O                   ",
"                      # j j       O O < c   =                   ",
"                    O   z w   .       i m                       ",
"                        6 N.          X.9.>                     ",
"                  .     F q O       @ ^ *.'   @                 ",
"                  .   O 0.D             Y I                     ",
"                  .   O R._     @           @                   ",
"                  .   @ [.F.        @                           ",
"                  + O W Z.h.                  @                 ",
"                  O O X ^.f.                                    "
};
